<svg width="16" height="16" viewBox="0 0 16 16" fill="none" xmlns="http://www.w3.org/2000/svg">
<g id="help-circle" clip-path="url(#clip0_1353_11852)">
<path id="Icon" d="M6.05998 5.99967C6.21672 5.55412 6.52608 5.17841 6.93328 4.9391C7.34048 4.69978 7.81924 4.6123 8.28476 4.69215C8.75028 4.772 9.17252 5.01402 9.4767 5.37536C9.78087 5.7367 9.94735 6.19402 9.94665 6.66634C9.94665 7.99967 7.94665 8.66634 7.94665 8.66634M7.99998 11.333H8.00665M14.6666 7.99967C14.6666 11.6816 11.6819 14.6663 7.99998 14.6663C4.31808 14.6663 1.33331 11.6816 1.33331 7.99967C1.33331 4.31778 4.31808 1.33301 7.99998 1.33301C11.6819 1.33301 14.6666 4.31778 14.6666 7.99967Z" stroke="#14C7C3" stroke-width="1.33333" stroke-linecap="round" stroke-linejoin="round"/>
</g>
<defs>
<clipPath id="clip0_1353_11852">
<rect width="16" height="16" fill="white"/>
</clipPath>
</defs>
</svg>
