<svg width="412" height="412" viewBox="0 0 412 412" fill="none" xmlns="http://www.w3.org/2000/svg">
<path d="M383.625 117.219L215.14 196.416H403.562C407.944 196.416 411.42 192.681 411.064 188.316C409.14 165.226 403.352 142.411 393.666 120.905C391.952 117.089 387.409 115.424 383.609 117.202L383.625 117.219Z" fill="#14C7C3"/>
<path d="M189.121 0.0552476C147.275 3.40232 106.253 19.4585 72.3297 48.2401C68.9988 51.0697 68.8209 56.1631 71.9093 59.2676L197.206 184.564V7.55785C197.206 3.17594 193.471 -0.28431 189.121 0.0552476Z" fill="#14C7C3"/>
<path d="M49.0319 71.4756C19.9593 105.334 3.64434 146.372 0.135581 188.3C-0.236315 192.665 3.25628 196.417 7.63819 196.417H185.356L60.0271 71.0875C56.9387 67.9992 51.8777 68.1609 49.0319 71.4756Z" fill="#14C7C3"/>
<path d="M222.089 411.13C264.291 407.767 305.652 391.452 339.737 362.185C343.052 359.34 343.214 354.279 340.125 351.19L214.004 225.069V403.628C214.004 408.009 217.739 411.47 222.089 411.13Z" fill="#14C7C3"/>
<path d="M71.4922 362.169C105.577 391.419 146.922 407.75 189.125 411.114C193.49 411.469 197.209 407.993 197.209 403.611V225.052L71.1041 351.157C68.0158 354.246 68.1775 359.307 71.4922 362.153V362.169Z" fill="#14C7C3"/>
<path d="M0.0209603 221.269C3.20633 263.39 19.2787 304.719 48.2543 338.853C51.0839 342.184 56.1773 342.362 59.2818 339.273L185.339 213.217H7.52357C3.15783 213.217 -0.302428 216.919 0.0209603 221.285V221.269Z" fill="#14C7C3"/>
<path d="M280.929 13.5729C261.962 6.13496 242.106 1.6237 222.072 0.0229257C217.723 -0.316632 214.004 3.15979 214.004 7.52553V195.107L285.117 23.4362C286.718 19.5556 284.842 15.0928 280.929 13.5567V13.5729Z" fill="#14C7C3"/>
<path d="M362.975 338.869C391.951 304.736 408.023 263.391 411.208 221.253C411.532 216.904 408.071 213.185 403.706 213.185H225.858L351.947 339.274C355.036 342.362 360.145 342.184 362.975 338.853V338.869Z" fill="#14C7C3"/>
</svg>
