<svg width="20" height="20" viewBox="0 0 20 20" fill="none" xmlns="http://www.w3.org/2000/svg">
<circle cx="10" cy="10" r="10" fill="#095856"/>
<path d="M16.926 6.56256L10.3706 9.64469H17.7017C17.8722 9.64469 18.0074 9.49933 17.9936 9.32943C17.9187 8.43084 17.6935 7.54295 17.3167 6.70603C17.25 6.55752 17.0732 6.49271 16.9254 6.56193L16.926 6.56256Z" fill="#0C7471"/>
<path d="M9.35805 2.00187C7.7299 2.13213 6.13384 2.75699 4.81396 3.87708C4.68436 3.9872 4.67744 4.18542 4.7976 4.30624L9.67261 9.18241V2.29385C9.67261 2.12332 9.52728 1.98866 9.35805 2.00187Z" fill="#0C7471"/>
<path d="M3.90789 4.78086C2.77675 6.09854 2.14197 7.69561 2.00545 9.32729C1.99098 9.49719 2.12687 9.64318 2.29736 9.64318H9.21196L4.33569 4.76575C4.21553 4.64556 4.01862 4.65186 3.90789 4.78086Z" fill="#0C7471"/>
<path d="M10.6407 17.9988C12.2827 17.8679 13.892 17.2329 15.2182 16.094C15.3471 15.9832 15.3534 15.7863 15.2333 15.6661L10.3262 10.7578V17.7068C10.3262 17.8773 10.4715 18.012 10.6407 17.9988Z" fill="#0C7471"/>
<path d="M4.78181 16.094C6.10798 17.2323 7.71663 17.8679 9.35862 17.9988C9.52848 18.0126 9.67318 17.8773 9.67318 17.7068V10.7578L4.76671 15.6654C4.64655 15.7856 4.65284 15.9826 4.78181 16.0933V16.094Z" fill="#0C7471"/>
<path d="M2.00082 10.6102C2.12475 12.2495 2.75009 13.8579 3.87746 15.1863C3.98756 15.3159 4.18573 15.3228 4.30652 15.2026L9.2111 10.2969H2.29272C2.12286 10.2969 1.98823 10.441 2.00082 10.6109V10.6102Z" fill="#0C7471"/>
<path d="M12.9301 2.52822C12.1921 2.23875 11.4196 2.06319 10.6401 2.00089C10.4709 1.98768 10.3262 2.12297 10.3262 2.29287V9.59297L13.093 2.91207C13.1553 2.76104 13.0823 2.58737 12.9301 2.52759V2.52822Z" fill="#0C7471"/>
<path d="M16.1225 15.1872C17.2499 13.8588 17.8752 12.2498 17.9991 10.6099C18.0117 10.4406 17.8771 10.2959 17.7072 10.2959H10.7876L15.6934 15.2029C15.8136 15.3231 16.0124 15.3162 16.1225 15.1865V15.1872Z" fill="#0C7471"/>
</svg>
