<svg width="156" height="32" viewBox="0 0 156 32" fill="none" xmlns="http://www.w3.org/2000/svg">
<path d="M39.0682 25.6379H52.3387C52.7062 25.6379 53.0032 25.3409 53.0032 24.9747V22.2426C53.0032 21.9506 52.8144 21.704 52.5527 21.6146C52.486 21.592 52.4142 21.5794 52.3387 21.5794H44.2279C43.8617 21.5794 43.5647 21.2824 43.5647 20.9162V5.59943C43.5647 5.23322 43.2677 4.93622 42.9003 4.93622H39.0682C38.702 4.93622 38.405 5.23322 38.405 5.59943V24.9747C38.405 25.3409 38.702 25.6379 39.0682 25.6379Z" fill="#B3FEF0"/>
<path d="M55.8368 25.6379H59.6688C60.0363 25.6379 60.3333 25.3409 60.3333 24.9747V5.59943C60.3333 5.23322 60.0363 4.93622 59.6688 4.93622H55.8368C55.4706 4.93622 55.1736 5.23322 55.1736 5.59943V24.9747C55.1736 25.3409 55.4706 25.6379 55.8368 25.6379Z" fill="#B3FEF0"/>
<path d="M63.9857 25.6379H77.2562C77.6224 25.6379 77.9207 25.3409 77.9207 24.9747V22.2426C77.9207 21.8764 77.6224 21.5794 77.2562 21.5794H69.1454C68.9428 21.5794 68.7616 21.4888 68.6408 21.3453C68.5414 21.2295 68.4822 21.0785 68.4822 20.9162V5.59943C68.4822 5.23322 68.184 4.93622 67.8177 4.93622H63.9857C63.6195 4.93622 63.3225 5.23322 63.3225 5.59943V24.9747C63.3225 25.3409 63.6195 25.6379 63.9857 25.6379Z" fill="#B3FEF0"/>
<path d="M80.8049 17.546C80.8729 17.653 80.9094 17.7763 80.9094 17.9034V24.9747C80.9094 25.3409 81.2064 25.6379 81.5726 25.6379H85.4046C85.7708 25.6379 86.0691 25.3409 86.0691 24.9747V17.9034C86.0691 17.7776 86.1043 17.653 86.1735 17.546L93.5947 5.95809C93.8766 5.51637 93.5594 4.93622 93.0359 4.93622H88.8842C88.6426 4.93622 88.4186 5.06836 88.3028 5.2823L84.0241 13.1162H83.9297L79.588 5.27852C79.4709 5.0671 79.2495 4.93622 79.0078 4.93622H73.9715C73.4467 4.93622 73.1295 5.51511 73.4114 5.95683L80.8049 17.546Z" fill="#B3FEF0"/>
<path d="M105.07 4.93622H96.8305C96.463 4.93622 96.166 5.23322 96.166 5.59943V24.9747C96.166 25.3409 96.463 25.6379 96.8305 25.6379H100.663C101.029 25.6379 101.326 25.3409 101.326 24.9747V20.3864C101.326 20.0202 101.623 19.7232 101.99 19.7232H105.542C110.953 19.7232 113.533 17.0175 113.533 12.4241C113.533 7.42168 110.355 4.93622 105.07 4.93622ZM105.321 16.2624H101.99C101.623 16.2624 101.326 15.9654 101.326 15.5992V9.65797C101.326 9.29176 101.623 8.99476 101.99 8.99476H104.912C107.366 8.99476 108.688 10.3161 108.688 12.6758C108.688 15.0354 107.492 16.2624 105.321 16.2624Z" fill="#B3FEF0"/>
<path d="M134.327 24.7356L126.848 5.36032C126.749 5.10485 126.503 4.93622 126.229 4.93622H120.721C120.446 4.93622 120.201 5.10485 120.102 5.36032L112.623 24.7356C112.455 25.1698 112.776 25.6379 113.242 25.6379H117.083C117.368 25.6379 117.621 25.4555 117.712 25.1849L118.824 21.8739C118.915 21.6046 119.168 21.4221 119.454 21.4221H126.773C127.058 21.4221 127.311 21.6046 127.402 21.8739L128.514 25.1849C128.605 25.4555 128.858 25.6379 129.144 25.6379H133.708C134.174 25.6379 134.495 25.1698 134.327 24.7356ZM125.256 18.213H120.966C120.513 18.213 120.193 17.7688 120.337 17.3396L122.844 9.98769C122.937 9.71712 123.321 9.71838 123.411 9.98895L125.886 17.3371C126.03 17.7675 125.711 18.213 125.256 18.213Z" fill="#B3FEF0"/>
<path d="M144.963 4.93622H137.29C136.922 4.93622 136.625 5.23322 136.625 5.59943V24.9747C136.625 25.3409 136.922 25.6379 137.29 25.6379H145.624C151.79 25.6379 155.66 22.0828 155.66 15.2556C155.66 8.42845 151.57 4.93622 144.963 4.93622ZM149.658 19.7131C147.991 21.3806 145.558 21.821 143.488 21.032C143.352 20.9804 143.285 20.8256 143.344 20.6934L145.495 15.7552C145.517 15.7061 145.465 15.6571 145.417 15.681L140.858 17.9399L140.592 18.0721C140.461 18.1362 140.304 18.0771 140.246 17.9437C139.432 16.0887 139.637 13.8965 140.858 12.2114C141.036 11.966 141.235 11.7319 141.457 11.5104C143.722 9.2452 147.394 9.24646 149.658 11.5104C151.922 13.7744 151.923 17.4479 149.658 19.7131Z" fill="#B3FEF0"/>
<path d="M29.8576 9.12316L16.7444 15.2871H31.4093C31.7503 15.2871 32.0209 14.9964 31.9932 14.6566C31.8434 12.8595 31.3929 11.0838 30.6391 9.41008C30.5057 9.11309 30.1521 8.98347 29.8563 9.1219L29.8576 9.12316Z" fill="#14C7C3"/>
<path d="M14.7193 0.00429417C11.4624 0.264796 8.26967 1.51445 5.62941 3.75452C5.37017 3.97475 5.35633 4.37116 5.59669 4.61279L15.3485 14.3646V0.588221C15.3485 0.247178 15.0578 -0.0221336 14.7193 0.00429417Z" fill="#14C7C3"/>
<path d="M3.81625 5.56292C1.55354 8.19815 0.283747 11.3921 0.0106606 14.6553C-0.0182841 14.9951 0.253544 15.2871 0.594588 15.2871H14.4264L4.67201 5.53272C4.43164 5.29235 4.03774 5.30494 3.81625 5.56292Z" fill="#14C7C3"/>
<path d="M17.2852 31.9982C20.5698 31.7365 23.789 30.4667 26.4418 28.1889C26.6998 27.9674 26.7124 27.5735 26.472 27.3331L16.656 17.5171V31.4143C16.656 31.7553 16.9467 32.0247 17.2852 31.9982Z" fill="#14C7C3"/>
<path d="M5.56414 28.1876C8.21698 30.4641 11.4349 31.7352 14.7195 31.9969C15.0593 32.0246 15.3487 31.7541 15.3487 31.413V17.5158L5.53394 27.3306C5.29357 27.5709 5.30616 27.9648 5.56414 28.1863V28.1876Z" fill="#14C7C3"/>
<path d="M0.00163134 17.2213C0.249549 20.4996 1.50046 23.7162 3.75563 26.3729C3.97586 26.6321 4.37227 26.646 4.6139 26.4056L14.4249 16.5946H0.585558C0.245773 16.5946 -0.0235379 16.8828 0.00163134 17.2226V17.2213Z" fill="#14C7C3"/>
<path d="M21.8648 1.05638C20.3886 0.477483 18.8432 0.126372 17.284 0.00178431C16.9455 -0.0246434 16.656 0.245926 16.656 0.585711V15.1851L22.1907 1.82404C22.3153 1.52201 22.1693 1.17467 21.8648 1.05512V1.05638Z" fill="#14C7C3"/>
<path d="M28.2504 26.3741C30.5055 23.7175 31.7565 20.4996 32.0044 17.2201C32.0295 16.8815 31.7602 16.5921 31.4205 16.5921H17.5786L27.3921 26.4056C27.6325 26.646 28.0302 26.6321 28.2504 26.3729V26.3741Z" fill="#14C7C3"/>
</svg>
