<svg width="1440" height="714" viewBox="0 0 1440 714" fill="none" xmlns="http://www.w3.org/2000/svg">
<path d="M1169.96 196.744L1345.35 318.752L1237.24 131.485C1234.72 127.13 1229.01 125.818 1224.88 128.677C1203.03 143.838 1183.68 162.683 1167.87 184.649C1165.06 188.542 1166.01 194.014 1169.96 196.77L1169.96 196.744Z" fill="#14C7C3" fill-opacity="0.4"/>
<path d="M1165.13 457.292C1192.47 496.962 1231.96 528.519 1280.03 545.719C1284.76 547.406 1289.92 544.66 1291.23 539.809L1343.87 343.384L1167.95 444.952C1163.59 447.466 1162.29 453.164 1165.13 457.292Z" fill="#14C7C3" fill-opacity="0.4"/>
<path d="M1316.49 555.529C1366.82 564.994 1416.97 557.661 1460.65 537.09C1465.2 534.955 1466.93 529.331 1464.41 524.976L1362.44 348.347L1309.79 544.824C1308.5 549.665 1311.56 554.602 1316.49 555.529Z" fill="#14C7C3" fill-opacity="0.4"/>
<path d="M1554.76 188.637C1527.2 148.624 1487.25 116.878 1438.61 99.7949C1433.88 98.1334 1428.75 100.877 1427.46 105.718L1374.48 303.437L1551.94 200.978C1556.3 198.463 1557.59 192.765 1554.76 188.637Z" fill="#14C7C3" fill-opacity="0.4"/>
<path d="M1592.51 366.404C1602.03 315.743 1594.53 265.28 1573.66 221.407C1571.51 216.864 1565.92 215.162 1561.56 217.677L1384.1 320.136L1581.79 373.108C1586.63 374.405 1591.57 371.34 1592.5 366.413L1592.51 366.404Z" fill="#14C7C3" fill-opacity="0.4"/>
<path d="M1493.49 518.291C1533.53 490.955 1565.38 451.266 1582.68 402.882C1584.36 398.159 1581.62 392.994 1576.77 391.681L1379.15 338.73L1481.18 515.455C1483.69 519.794 1489.35 521.108 1493.51 518.282L1493.49 518.291Z" fill="#14C7C3" fill-opacity="0.4"/>
<path d="M1125.88 358.28C1129.37 381.398 1136.28 403.721 1146.18 424.551C1148.34 429.069 1153.93 430.77 1158.27 428.265L1344.7 320.628L1133.28 348.458C1128.5 349.094 1125.14 353.519 1125.86 358.289L1125.88 358.28Z" fill="#14C7C3" fill-opacity="0.4"/>
<path d="M1402.1 90.0877C1351.55 80.876 1301.24 88.6264 1257.53 109.64C1253.02 111.814 1251.31 117.387 1253.82 121.726L1355.87 298.483L1408.83 100.816C1410.13 95.9741 1407.02 90.998 1402.09 90.097L1402.1 90.0877Z" fill="#14C7C3" fill-opacity="0.4"/>
<path d="M487.817 285.067L241.949 400.639L516.911 400.639C523.305 400.639 528.379 395.188 527.859 388.817C525.052 355.123 516.604 321.829 502.47 290.447C499.969 284.878 493.339 282.448 487.794 285.043L487.817 285.067Z" fill="#14C7C3" fill-opacity="0.2"/>
<path d="M203.971 114.079C142.905 118.963 83.0421 142.394 33.5381 184.394C28.6774 188.523 28.4178 195.956 32.9246 200.487L215.768 383.33L215.768 125.027C215.768 118.633 210.318 113.583 203.971 114.079Z" fill="#14C7C3" fill-opacity="0.2"/>
<path d="M-0.44066 218.314C-42.8659 267.723 -66.674 327.61 -71.7943 388.793C-72.337 395.164 -67.2403 400.638 -60.8459 400.638H198.495L15.6045 217.748C11.0977 213.241 3.7122 213.477 -0.44066 218.314Z" fill="#14C7C3" fill-opacity="0.2"/>
<path d="M252.094 713.967C313.679 709.059 374.037 685.251 423.777 642.542C428.614 638.389 428.85 631.004 424.343 626.497L240.296 442.45L240.296 703.018C240.296 709.413 245.747 714.462 252.094 713.967Z" fill="#14C7C3" fill-opacity="0.2"/>
<path d="M32.3336 642.519C82.0735 685.204 142.408 709.036 203.993 713.944C210.364 714.463 215.791 709.39 215.791 702.995L215.791 442.427L31.7673 626.45C27.2605 630.957 27.4965 638.343 32.3336 642.495V642.519Z" fill="#14C7C3" fill-opacity="0.2"/>
<path d="M-71.9694 436.905C-67.321 498.372 -43.8668 558.683 -1.58317 608.493C2.54609 613.354 9.97877 613.614 14.5092 609.107L198.462 425.154L-61.021 425.154C-67.3918 425.154 -72.4413 430.558 -71.9694 436.928V436.905Z" fill="#14C7C3" fill-opacity="0.2"/>
<path d="M337.961 133.807C310.283 122.953 281.307 116.369 252.072 114.033C245.725 113.538 240.298 118.611 240.298 124.982L240.298 398.717L344.072 148.2C346.408 142.537 343.671 136.025 337.961 133.783V133.807Z" fill="#14C7C3" fill-opacity="0.2"/>
<path d="M457.675 608.516C499.959 558.705 523.413 498.371 528.062 436.88C528.533 430.533 523.484 425.106 517.113 425.106L257.583 425.106L441.583 609.106C446.09 613.613 453.546 613.353 457.675 608.492V608.516Z" fill="#14C7C3" fill-opacity="0.2"/>
<path d="M396.395 219.322L373.909 148.067L363.826 223.014C363.592 224.757 364.891 226.339 366.647 226.432C375.934 226.902 385.319 225.82 394.391 223.119C396.001 222.641 396.906 220.923 396.402 219.316L396.395 219.322Z" fill="#14C7C3" fill-opacity="0.6"/>
<path d="M453.408 148.223C454.316 131.399 450.125 114.223 440.492 99.1894C439.545 97.7131 437.528 97.3698 436.128 98.4321L379.585 141.565L449.991 151.038C451.734 151.272 453.31 149.972 453.408 148.223Z" fill="#14C7C3" fill-opacity="0.6"/>
<path d="M432.496 88.6854C420.584 75.3095 405.134 66.6239 388.645 62.9846C386.928 62.603 385.249 63.7915 385.015 65.5345L375.504 136.224L432.062 93.0796C433.456 92.0165 433.662 89.9948 432.496 88.6854Z" fill="#14C7C3" fill-opacity="0.6"/>
<path d="M288.131 139.341C287.211 156.307 291.487 173.632 301.304 188.756C302.259 190.227 304.263 190.562 305.657 189.499L362.572 146.082L291.548 136.527C289.805 136.292 288.229 137.593 288.131 139.341Z" fill="#14C7C3" fill-opacity="0.6"/>
<path d="M315.667 82.0596C302.208 94.0521 293.5 109.624 289.903 126.23C289.528 127.948 290.712 129.613 292.455 129.847L363.479 139.403L320.067 82.4945C319.004 81.1008 316.983 80.8943 315.673 82.0605L315.667 82.0596Z" fill="#14C7C3" fill-opacity="0.6"/>
<path d="M375.536 61.1701C358.611 60.1831 341.312 64.3644 326.185 74.0631C324.708 75.0104 324.365 77.0268 325.427 78.427L368.822 135.313L378.338 64.5853C378.571 62.8488 377.284 61.2743 375.53 61.1693L375.536 61.1701Z" fill="#14C7C3" fill-opacity="0.6"/>
<path d="M443.118 184.022C447.092 176.876 449.949 169.219 451.658 161.336C452.026 159.624 450.842 157.959 449.105 157.725L374.493 147.687L438.971 185.16C440.429 186.004 442.304 185.497 443.125 184.023L443.118 184.022Z" fill="#14C7C3" fill-opacity="0.6"/>
<path d="M309.337 199.247C321.363 212.599 336.949 221.204 353.539 224.726C355.252 225.088 356.916 223.91 357.15 222.174L366.667 151.433L309.766 194.839C308.372 195.902 308.17 197.944 309.343 199.248L309.337 199.247Z" fill="#14C7C3" fill-opacity="0.6"/>
</svg>
